<svg xmlns="http://www.w3.org/2000/svg" xmlns:xlink="http://www.w3.org/1999/xlink" width="375" height="320" viewBox="0 0 375 320">
  <defs>
    <clipPath id="clip-path">
      <rect id="Rectangle_1" data-name="Rectangle 1" width="375" height="320" transform="translate(0 1476)" fill="#fff" stroke="#707070" stroke-width="1"/>
    </clipPath>
  </defs>
  <g id="Mask_Group_1" data-name="Mask Group 1" transform="translate(0 -1476)" clip-path="url(#clip-path)">
    <g id="Satellite" transform="translate(929.781 2110.565)">
      <path id="Path_3" data-name="Path 3" d="M-949.478-382.045s321.08-6.632,467.528-227.1,18.55,0,18.55,0L-448.242-290.2s-165.93-11.275-509.574,0S-949.478-382.045-949.478-382.045Z" transform="translate(0 0)" fill="#42708c" fill-rule="evenodd"/>
      <path id="Path_4" data-name="Path 4" stroke-linecap="square" d="M0,171.846S261.946,182.914,400.877,0" fill="none" stroke="#083a40" transform="translate(-949.478 -609.144)" stroke-linejoin="round" stroke-miterlimit="1.5" stroke-width="5" stroke-dasharray="20 20 20 20" fill-rule="evenodd"/>
      <g id="Satellite-2" data-name="Satellite" transform="translate(-845.619 -576.478)">
        <g id="Group_4" data-name="Group 4" transform="translate(112.033 112.033)">
          <path id="Path_5" data-name="Path 5" d="M1426.429,1428.712l-11.771-11.771a1.614,1.614,0,0,1,2.283-2.283l11.771,11.771a1.614,1.614,0,1,1-2.283,2.283Z" transform="translate(-1414.185 -1414.185)" fill="#3e4546"/>
        </g>
        <g id="Group_5" data-name="Group 5" transform="translate(115.719 115.719)">
          <path id="Path_6" data-name="Path 6" d="M1497.633,1518.854l-56.206-56.206a2.2,2.2,0,0,1,0-3.108l18.113-18.113a2.2,2.2,0,0,1,3.108,0l56.206,56.206a2.2,2.2,0,0,1,0,3.109l-18.112,18.113A2.2,2.2,0,0,1,1497.633,1518.854Z" transform="translate(-1440.783 -1440.783)" fill="#083a40"/>
        </g>
        <g id="Group_6" data-name="Group 6" transform="translate(120.517 120.516)">
          <path id="Path_7" data-name="Path 7" d="M1538.732,1536.447l-7.74-7.74,9.469-9.469-2.283-2.283-9.469,9.469-8.1-8.1,9.469-9.469h0l-2.283-2.283h0l-9.469,9.469-8.1-8.1,9.469-9.469-2.283-2.283-9.469,9.469-8.1-8.1,9.469-9.469-2.283-2.283h0l-9.469,9.469-8.1-8.1,9.469-9.469h0l-2.284-2.283h0l-9.469,9.469-5.708-5.708-2.283,2.283,5.708,5.708-9.469,9.469h0l2.283,2.283h0l9.469-9.469,8.1,8.1-9.469,9.469h0l2.283,2.283,9.469-9.469,8.1,8.1-9.469,9.469,2.284,2.283,9.469-9.469,8.1,8.1-9.469,9.469h0l2.283,2.283h0l9.469-9.469,8.1,8.1-9.469,9.469,2.284,2.284,9.469-9.469,7.739,7.74a1.614,1.614,0,0,0,2.283-2.283Z" transform="translate(-1475.406 -1475.404)" fill="#90a6b4"/>
        </g>
        <g id="Group_7" data-name="Group 7" transform="translate(170.059 170.059)">
          <path id="Path_8" data-name="Path 8" d="M1856.669,1835.448l-2.51-2.51-21.221,21.221,2.51,2.51a2.2,2.2,0,0,0,3.109,0l18.112-18.113A2.2,2.2,0,0,0,1856.669,1835.448Z" transform="translate(-1832.938 -1832.938)" fill="#d9967e"/>
        </g>
        <g id="Group_8" data-name="Group 8" transform="translate(67.4 67.4)">
          <path id="Path_9" data-name="Path 9" d="M1104.324,1106.608l-11.771-11.771a1.614,1.614,0,0,1,2.283-2.283l11.771,11.771a1.614,1.614,0,1,1-2.283,2.283Z" transform="translate(-1092.08 -1092.081)" fill="#3e4546"/>
        </g>
        <g id="Group_9" data-name="Group 9" transform="translate(0 0)">
          <path id="Path_10" data-name="Path 10" d="M627.54,606.319l56.206,56.206a2.2,2.2,0,0,1,0,3.109l-18.113,18.113a2.2,2.2,0,0,1-3.109,0L606.319,627.54a2.2,2.2,0,0,1,0-3.109l18.112-18.113A2.2,2.2,0,0,1,627.54,606.319Z" transform="translate(-605.675 -605.675)" fill="#083a40"/>
        </g>
        <g id="Group_10" data-name="Group 10" transform="translate(8.862 8.861)">
          <path id="Path_11" data-name="Path 11" d="M730.921,728.636l-5.708-5.708,9.469-9.469-2.283-2.283h0l-9.469,9.469-8.1-8.1,9.469-9.469h0l-2.283-2.283h0l-9.469,9.469-8.1-8.1,9.47-9.469-2.284-2.283-9.469,9.469-8.1-8.1,9.469-9.47h0l-2.283-2.283h0l-9.469,9.469-8.1-8.1,9.469-9.469h0l-2.284-2.283h0l-9.469,9.469-7.74-7.74a1.615,1.615,0,0,0-2.284,2.283l7.74,7.74-9.469,9.469h0l2.283,2.283h0l9.469-9.469,8.1,8.1-9.469,9.469h0l2.283,2.283h0l9.469-9.469,8.1,8.1-9.469,9.469,2.283,2.283,9.469-9.469,8.1,8.1-9.469,9.469h0l2.284,2.283h0l9.469-9.469,8.1,8.1-9.469,9.469h0l2.284,2.283,9.469-9.469,5.708,5.708Z" transform="translate(-669.627 -669.624)" fill="#90a6b4"/>
        </g>
        <g id="Group_11" data-name="Group 11" transform="translate(0 0)">
          <path id="Path_12" data-name="Path 12" d="M606.319,627.54l2.51,2.51,21.222-21.221-2.51-2.51a2.2,2.2,0,0,0-3.109,0l-18.112,18.113A2.2,2.2,0,0,0,606.319,627.54Z" transform="translate(-605.675 -605.675)" fill="#d9967e"/>
        </g>
        <g id="Group_12" data-name="Group 12" transform="translate(48.679 58.319)">
          <path id="Path_13" data-name="Path 13" d="M990.878,1111.866l-31.787-31.787a7.218,7.218,0,0,1,0-10.207l41.213-41.214a7.218,7.218,0,0,1,10.207,0l31.787,31.787a7.217,7.217,0,0,1,0,10.208l-41.213,41.213A7.218,7.218,0,0,1,990.878,1111.866Z" transform="translate(-956.977 -1026.544)" fill="#edf5f7"/>
        </g>
        <g id="Group_13" data-name="Group 13" transform="translate(65.545 75.185)">
          <path id="Path_14" data-name="Path 14" d="M1080.977,1201.967l-2.283-2.283,51.421-51.421,2.283,2.283Z" transform="translate(-1078.694 -1148.263)" fill="#90a6b4"/>
        </g>
        <g id="Group_14" data-name="Group 14" transform="translate(67.461 67.461)">
          <path id="Path_15" data-name="Path 15" d="M1134.516,1152.033l-41.995-41.995,17.517-17.517,42,41.994Z" transform="translate(-1092.521 -1092.521)" fill="#d9967e"/>
        </g>
        <g id="Group_15" data-name="Group 15" transform="translate(52.117 116.336)">
          <path id="Path_16" data-name="Path 16" d="M1000.029,1470.021l-17.046-17.046a4.085,4.085,0,0,1,0-5.776l1.962-1.962,22.823,22.823-1.962,1.962A4.084,4.084,0,0,1,1000.029,1470.021Z" transform="translate(-981.787 -1445.237)" fill="#083a40"/>
        </g>
        <g id="Group_16" data-name="Group 16" transform="translate(100.293 71.341)">
          <path id="Path_17" data-name="Path 17" d="M1349.5,1142.845l-19.571-19.572a1.614,1.614,0,0,1,2.283-2.283l19.571,19.571a1.615,1.615,0,0,1-2.283,2.283Z" transform="translate(-1329.458 -1120.517)" fill="#90a6b4"/>
        </g>
        <g id="Group_17" data-name="Group 17" transform="translate(106.696 61.757)">
          <path id="Path_18" data-name="Path 18" d="M1383.406,1052.55l17.046,17.046a4.085,4.085,0,0,1,0,5.776l-1.962,1.962-22.823-22.823,1.962-1.962A4.084,4.084,0,0,1,1383.406,1052.55Z" transform="translate(-1375.668 -1051.354)" fill="#083a40"/>
        </g>
        <g id="Group_18" data-name="Group 18" transform="translate(105.33 31.132)">
          <path id="Path_19" data-name="Path 19" d="M1422.994,887.531c-3.824,3.824-19.537-5.689-35.1-21.248s-25.072-31.272-21.248-35.1,19.536,5.689,35.095,21.248S1426.818,883.707,1422.994,887.531Z" transform="translate(-1365.805 -830.342)" fill="#edf5f7"/>
        </g>
        <g id="Group_19" data-name="Group 19" transform="translate(103.66 31.977)">
          <path id="Path_20" data-name="Path 20" d="M1377.521,871.536c-15.558-15.559-25.072-31.271-21.248-35.1-6.429,6.429-.246,25.472,15.313,41.03s34.6,21.743,41.03,15.313C1408.793,896.608,1393.08,887.095,1377.521,871.536Z" transform="translate(-1353.759 -836.441)" fill="#083a40"/>
        </g>
        <g id="Group_20" data-name="Group 20" transform="translate(130.751 46.179)">
          <path id="Path_21" data-name="Path 21" d="M1549.736,956.024a1.614,1.614,0,0,1,0-2.283l14.336-14.336a1.615,1.615,0,1,1,2.283,2.284l-14.336,14.336A1.614,1.614,0,0,1,1549.736,956.024Z" transform="translate(-1549.263 -938.932)" fill="#90a6b4"/>
        </g>
        <g id="Group_21" data-name="Group 21" transform="translate(142.381 42.346)">
          <path id="Path_22" data-name="Path 22" d="M1641.529,919.613a4.884,4.884,0,1,1,0-6.907A4.884,4.884,0,0,1,1641.529,919.613Z" transform="translate(-1633.192 -911.275)" fill="#d9967e"/>
        </g>
      </g>
    </g>
  </g>
</svg>
